<svg width="625" height="146" viewBox="0 0 625 146" fill="none" xmlns="http://www.w3.org/2000/svg">
<path d="M90.6333 143H63.1919V80.5977H27.8403V143H0.398895V0.226562H27.8403V56.7695H63.1919V0.226562H90.6333V143ZM193.448 88.0195C193.448 95.6367 192.667 102.863 191.104 109.699C189.607 116.535 187.198 122.59 183.878 127.863C180.622 133.137 176.326 137.303 170.987 140.363C165.714 143.423 159.268 144.953 151.651 144.953C144.555 144.953 138.402 143.456 133.194 140.461C127.986 137.466 123.689 133.365 120.303 128.156C116.918 122.883 114.379 116.828 112.686 109.992C111.059 103.091 110.245 95.7669 110.245 88.0195C110.245 77.0169 111.677 67.2839 114.542 58.8203C117.471 50.2917 121.996 43.6185 128.116 38.8008C134.301 33.9831 142.276 31.5742 152.042 31.5742C160.44 31.5742 167.732 33.7552 173.917 38.1172C180.167 42.4792 184.984 48.8594 188.37 57.2578C191.755 65.5911 193.448 75.8451 193.448 88.0195ZM136.612 88.4102C136.612 95.9622 137.133 102.31 138.174 107.453C139.281 112.596 140.941 116.47 143.155 119.074C145.434 121.678 148.331 122.98 151.846 122.98C155.427 122.98 158.292 121.711 160.44 119.172C162.654 116.568 164.249 112.661 165.225 107.453C166.267 102.245 166.788 95.7669 166.788 88.0195C166.788 80.3372 166.267 73.957 165.225 68.8789C164.249 63.8008 162.654 59.9922 160.44 57.4531C158.292 54.9141 155.427 53.6445 151.846 53.6445C146.508 53.6445 142.634 56.4766 140.225 62.1406C137.816 67.8047 136.612 76.5612 136.612 88.4102ZM282.493 143L272.63 88.0195C272.304 85.7409 271.946 83.3971 271.556 80.9883C271.23 78.5143 270.905 76.0404 270.579 73.5664C270.253 71.0924 269.928 68.651 269.602 66.2422C269.342 63.8333 269.082 61.5547 268.821 59.4062H268.235C267.91 61.8151 267.584 64.2891 267.259 66.8281C266.933 69.3021 266.608 71.776 266.282 74.25C265.957 76.724 265.631 79.1328 265.306 81.4766C264.98 83.7552 264.622 85.8711 264.231 87.8242L254.075 143H224.485L201.438 33.625H227.513L235.227 75.6172C235.944 79.263 236.562 83.1693 237.083 87.3359C237.669 91.4375 238.19 95.6367 238.645 99.9336C239.166 104.165 239.589 108.332 239.915 112.434H240.501C240.761 109.895 241.022 107.29 241.282 104.621C241.608 101.952 241.966 99.1523 242.356 96.2227C242.747 93.293 243.203 90.2656 243.724 87.1406C244.244 83.9505 244.83 80.6302 245.481 77.1797L253.88 33.625H283.665L291.868 77.7656C292.454 81.6068 293.04 85.5456 293.626 89.582C294.212 93.5534 294.765 97.4596 295.286 101.301C295.807 105.142 296.263 108.853 296.653 112.434H297.434C297.63 109.178 297.89 105.793 298.216 102.277C298.606 98.6966 299.03 95.0182 299.485 91.2422C300.006 87.4661 300.592 83.7227 301.243 80.0117L310.227 33.625H335.911L312.474 143H282.493ZM402.983 143L374.761 37.6289H373.98C374.305 41.9909 374.566 46.0924 374.761 49.9336C374.956 53.7747 375.086 57.3229 375.151 60.5781C375.282 63.8333 375.347 66.763 375.347 69.3672V143H349.761V0.226562H387.554L413.921 97.9805H414.605L440.972 0.226562H478.569V143H452.398V69.1719C452.398 66.2422 452.43 63.1823 452.495 59.9922C452.625 56.737 452.756 53.2865 452.886 49.6406C453.081 45.9297 453.309 41.9909 453.569 37.8242H452.788L424.37 143H402.983ZM540.271 31.5742C550.883 31.5742 558.956 34.862 564.49 41.4375C570.089 47.9479 572.888 57.681 572.888 70.6367V143H553.845L549.646 128.352H549.06C546.846 132.062 544.47 135.155 541.931 137.629C539.457 140.103 536.625 141.926 533.435 143.098C530.245 144.335 526.501 144.953 522.204 144.953C516.15 144.953 511.234 143.326 507.458 140.07C503.747 136.815 501.046 132.583 499.353 127.375C497.66 122.167 496.814 116.633 496.814 110.773C496.814 99.3802 499.971 90.7539 506.286 84.8945C512.602 79.0352 521.586 75.8776 533.24 75.4219L546.814 74.8359V70.4414C546.814 64.4518 545.87 59.9922 543.982 57.0625C542.159 54.0677 539.131 52.5703 534.9 52.5703C531.775 52.5703 528.357 53.1888 524.646 54.4258C520.935 55.6628 516.866 57.5833 512.439 60.1875L505.212 40.7539C510.16 37.7591 515.596 35.4805 521.521 33.918C527.445 32.3555 533.695 31.5742 540.271 31.5742ZM546.814 92.2188L539.49 92.6094C533.956 92.8698 529.822 94.4323 527.087 97.2969C524.418 100.096 523.083 104.198 523.083 109.602C523.083 114.484 523.897 118.13 525.525 120.539C527.217 122.948 529.659 124.152 532.849 124.152C536.951 124.152 540.303 122.167 542.908 118.195C545.512 114.224 546.814 108.885 546.814 102.18V92.2188ZM593.574 128.84C593.574 123.501 594.908 119.432 597.578 116.633C600.247 113.833 604.121 112.434 609.199 112.434C614.016 112.434 617.76 113.833 620.429 116.633C623.098 119.367 624.433 123.436 624.433 128.84C624.433 134.113 623.066 138.182 620.332 141.047C617.597 143.846 613.886 145.246 609.199 145.246C604.446 145.246 600.638 143.846 597.773 141.047C594.973 138.182 593.574 134.113 593.574 128.84Z" fill="black"/>
</svg>
