<svg width="250" height="250" viewBox="0 0 250 250" fill="none" xmlns="http://www.w3.org/2000/svg">
<g clip-path="url(#clip0_83_272)">
<path d="M0 78.125C0.00381495 96.2063 6.27679 113.727 17.7501 127.702C29.2235 141.677 45.1874 151.241 62.9219 154.766C63.9319 143.571 66.8048 132.623 71.4219 122.375C57.7344 117.75 48.9375 107.25 46.875 92.3437H39.0625V85.6875H46.3438V78.9062C46.3438 78.1875 46.3438 77.4531 46.4063 76.7969H39.0625V70.125H47.0469C50.5625 50.625 65.8281 39.0625 88.7656 39.0625C93.7031 39.0625 97.9844 39.5469 101.562 40.3906V51.8437C97.3834 50.9139 93.1087 50.4838 88.8281 50.5625C74.4687 50.5625 64.7969 57.8437 61.7344 70.125H91.6875V76.7969H60.75C60.7031 77.5156 60.7031 78.3125 60.7031 79.0937V85.6875H91.6875V92.3594H61.4063C63.25 101.766 68.7187 108.453 77.1094 111.562C85.3366 97.9369 96.6511 86.4357 110.14 77.9866C123.629 69.5376 138.916 64.3773 154.766 62.9219C150.934 43.9455 140.195 27.0666 124.63 15.5549C109.065 4.04311 89.7817 -1.28223 70.515 0.610398C51.2483 2.50303 33.3697 11.4789 20.3424 25.7994C7.31505 40.1199 0.0662027 58.7657 0 78.125H0ZM250 164.062C250 186.855 240.946 208.713 224.829 224.829C208.713 240.946 186.855 250 164.062 250C141.27 250 119.412 240.946 103.296 224.829C87.1791 208.713 78.125 186.855 78.125 164.062C78.125 141.27 87.1791 119.412 103.296 103.295C119.412 87.1791 141.27 78.125 164.062 78.125C186.855 78.125 208.713 87.1791 224.829 103.295C240.946 119.412 250 141.27 250 164.062V164.062ZM128.906 184.719C129.984 197.766 140.562 207.922 159.594 209.125V218.75H168.031V209.062C187.703 207.719 199.219 197.5 199.219 182.656C199.219 169.141 190.422 162.187 174.688 158.594L168.031 157.031V130.844C176.469 131.781 181.844 136.266 183.125 142.484H197.938C196.844 129.922 185.766 120.094 168.031 119.016V109.375H159.594V119.203C142.781 120.812 131.344 130.641 131.344 144.547C131.344 156.844 139.844 164.672 154 167.875L159.594 169.203V197.016C150.937 195.766 145.219 191.141 143.922 184.719H128.906ZM159.531 155.109C151.219 153.234 146.719 149.422 146.719 143.672C146.719 137.266 151.578 132.437 159.594 131.031V155.094H159.516L159.531 155.109ZM169.25 171.422C179.328 173.687 183.984 177.359 183.984 183.859C183.984 191.266 178.203 196.359 168.047 197.297V171.141L169.25 171.422Z" fill="black"/>
</g>
<defs>
<clipPath id="clip0_83_272">
<rect width="250" height="250" fill="white"/>
</clipPath>
</defs>
</svg>
