<svg width="250" height="250" viewBox="0 0 250 250" fill="none" xmlns="http://www.w3.org/2000/svg">
<g clip-path="url(#clip0_83_281)">
<path d="M208.333 31.25C213.859 31.25 219.158 33.4449 223.065 37.3519C226.972 41.2589 229.167 46.558 229.167 52.0833V197.917C229.167 203.442 226.972 208.741 223.065 212.648C219.158 216.555 213.859 218.75 208.333 218.75H41.6667C36.1413 218.75 30.8423 216.555 26.9353 212.648C23.0283 208.741 20.8333 203.442 20.8333 197.917V52.0833C20.8333 46.558 23.0283 41.2589 26.9353 37.3519C30.8423 33.4449 36.1413 31.25 41.6667 31.25H208.333ZM208.333 52.0833H41.6667V157.292L93.6979 105.271C94.9071 104.061 96.3426 103.102 97.9226 102.447C99.5026 101.793 101.196 101.456 102.906 101.456C104.616 101.456 106.31 101.793 107.89 102.447C109.47 103.102 110.905 104.061 112.115 105.271L154.458 147.625L167.354 134.729C168.563 133.52 169.999 132.56 171.579 131.906C173.159 131.251 174.852 130.914 176.563 130.914C178.273 130.914 179.966 131.251 181.546 131.906C183.126 132.56 184.562 133.52 185.771 134.729L208.333 157.302V52.0833ZM161.458 72.9167C165.602 72.9167 169.577 74.5629 172.507 77.4931C175.437 80.4234 177.083 84.3977 177.083 88.5417C177.083 92.6857 175.437 96.66 172.507 99.5902C169.577 102.52 165.602 104.167 161.458 104.167C157.314 104.167 153.34 102.52 150.41 99.5902C147.48 96.66 145.833 92.6857 145.833 88.5417C145.833 84.3977 147.48 80.4234 150.41 77.4931C153.34 74.5629 157.314 72.9167 161.458 72.9167V72.9167Z" fill="black"/>
</g>
<defs>
<clipPath id="clip0_83_281">
<rect width="250" height="250" fill="white"/>
</clipPath>
</defs>
</svg>
