<svg width="250" height="250" viewBox="0 0 250 250" fill="none" xmlns="http://www.w3.org/2000/svg">
<path d="M166.667 133.25V166.667H133.333V133.25H166.667ZM166.667 83.2833V116.583H133.333V83.2833H166.667ZM116.667 83.2833H83.3333V116.583H116.667V83.2833ZM116.667 133.25H83.3333V166.667H116.667V133.25Z" fill="black"/>
<path fill-rule="evenodd" clip-rule="evenodd" d="M16.6667 25C16.6667 18.3696 19.3006 12.0107 23.989 7.32233C28.6774 2.63392 35.0362 0 41.6667 0L178.45 0L233.333 54.8833V225C233.333 231.63 230.699 237.989 226.011 242.678C221.323 247.366 214.964 250 208.333 250H41.6667C35.0362 250 28.6774 247.366 23.989 242.678C19.3006 237.989 16.6667 231.63 16.6667 225V25ZM183.333 66.6167H66.6667V183.333H183.333V66.6167Z" fill="black"/>
</svg>
